<svg xmlns="http://www.w3.org/2000/svg" viewBox="0 0 260 62" fill="none">
  <!-- Trimble Globe Mark -->
  <!-- Outer circle -->
  <circle cx="31" cy="31" r="28" fill="#005596"/>
  <!-- Globe latitude lines -->
  <ellipse cx="31" cy="31" rx="28" ry="28" fill="none" stroke="white" stroke-width="1.2" opacity="0.25"/>
  <ellipse cx="31" cy="31" rx="16" ry="28" fill="none" stroke="white" stroke-width="1.2" opacity="0.35"/>
  <ellipse cx="31" cy="31" rx="6" ry="28" fill="none" stroke="white" stroke-width="1.2" opacity="0.35"/>
  <!-- Horizontal latitude arcs -->
  <path d="M 3 22 Q 31 18 59 22" fill="none" stroke="white" stroke-width="1.2" opacity="0.4"/>
  <path d="M 3 31 H 59" fill="none" stroke="white" stroke-width="1.2" opacity="0.4"/>
  <path d="M 3 40 Q 31 44 59 40" fill="none" stroke="white" stroke-width="1.2" opacity="0.4"/>
  <!-- Clip globe to circle -->
  <circle cx="31" cy="31" r="28" fill="none" stroke="#005596" stroke-width="2"/>

  <!-- Trimble wordmark -->
  <!-- T -->
  <rect x="76" y="14" width="24" height="5.5" rx="1" fill="#005596"/>
  <rect x="85.5" y="14" width="5" height="34" rx="1" fill="#005596"/>
  <!-- R -->
  <rect x="106" y="14" width="5" height="34" rx="1" fill="#005596"/>
  <path d="M 111 14 Q 125 14 125 22 Q 125 30 111 30" fill="none" stroke="#005596" stroke-width="5" stroke-linecap="round"/>
  <path d="M 113 30 L 125 48" fill="none" stroke="#005596" stroke-width="5" stroke-linecap="round"/>
  <!-- I -->
  <rect x="130" y="14" width="5" height="34" rx="1" fill="#005596"/>
  <!-- M -->
  <rect x="140" y="14" width="5" height="34" rx="1" fill="#005596"/>
  <path d="M 145 14 L 154 32 L 163 14" fill="none" stroke="#005596" stroke-width="5" stroke-linecap="round" stroke-linejoin="round"/>
  <rect x="163" y="14" width="5" height="34" rx="1" fill="#005596"/>
  <!-- B -->
  <rect x="174" y="14" width="5" height="34" rx="1" fill="#005596"/>
  <path d="M 179 14 Q 193 14 193 22 Q 193 30 179 30" fill="none" stroke="#005596" stroke-width="5" stroke-linecap="round"/>
  <path d="M 179 30 Q 195 30 195 39 Q 195 48 179 48" fill="none" stroke="#005596" stroke-width="5" stroke-linecap="round"/>
  <!-- L -->
  <rect x="200" y="14" width="5" height="34" rx="1" fill="#005596"/>
  <rect x="200" y="43" width="18" height="5.5" rx="1" fill="#005596"/>
  <!-- E -->
  <rect x="223" y="14" width="5" height="34" rx="1" fill="#005596"/>
  <rect x="223" y="14" width="18" height="5.5" rx="1" fill="#005596"/>
  <rect x="223" y="28.5" width="14" height="5" rx="1" fill="#005596"/>
  <rect x="223" y="42.5" width="18" height="5.5" rx="1" fill="#005596"/>
</svg>
